<svg width="1024" height="810" viewBox="0 0 1024 810" fill="none" xmlns="http://www.w3.org/2000/svg">
<g filter="url(#filter0_d_248_48)">
<path d="M616.415 801.155C493.79 794.789 415.24 659.478 450.912 516.056C459.67 480.844 464.303 463.225 468.731 448.288C471.435 439.167 475.398 424.834 477.538 416.438C479.678 408.041 483.125 395.326 485.198 388.183C496.502 349.232 500.829 302.587 493.884 294.533C478.355 276.523 405.297 269.635 366.137 282.488C361.661 283.957 337.857 289.528 327.526 291.523C320.466 292.888 320.466 292.888 313.515 315.614C304.711 344.405 300.219 358.019 291.428 382.565C287.556 393.376 282.666 407.196 280.561 413.277C222.329 581.491 98.0113 637.602 -47.4576 561.329C-98.6928 534.465 -109.911 522.643 -112.763 492.513C-116.641 451.535 -72.0772 414.389 -40.8067 432.534C79.6309 502.42 146.405 481.295 177.33 363.524C177.773 361.835 181.558 350.502 185.74 338.341C189.922 326.179 196.608 306.001 200.599 293.502C204.59 281.002 208.42 269.539 209.11 268.028C210.26 265.512 209.568 264.453 200.874 255.43C136.95 189.082 145.286 45.691 215.088 10.9017C292.284 -27.5723 359.253 40.1323 348.521 145.8C346.674 163.984 345.619 162.727 360.214 159.733C384.808 154.688 391.004 154.071 417.087 154.071C544.91 154.071 619.859 222.638 609.886 330.452C606.8 363.808 601.205 387.969 577.054 472.243C547.5 575.37 547.994 619.059 579.108 653.803C616.366 695.406 656.277 683.679 707.851 615.973C716.605 604.482 717.339 603.477 729.854 585.876C736.339 576.755 744.983 564.869 749.062 559.464C753.141 554.059 759.932 544.937 764.153 539.194C768.374 533.451 772.123 528.476 772.483 528.138C772.844 527.8 775.373 524.483 778.103 520.767C801.983 488.264 859.256 423.578 879.417 406.341C882.462 403.737 888.691 397.992 893.259 393.575C906.128 381.129 937.13 353.643 946.967 345.958C969.475 328.373 1014.5 295.959 1016.41 295.959C1016.63 295.959 1024.26 291.506 1033.38 286.065C1106.99 242.126 1180.02 215.473 1263.55 202.064C1338.16 190.084 1418.49 193.941 1519.48 214.351C1569.54 224.468 1653.05 254.238 1672.05 268.743C1716.33 302.542 1691.1 382.952 1637.42 379.126C1625.55 378.28 1620.61 376.771 1589.92 364.609C1576.2 359.172 1560.27 353.366 1554.52 351.707C1548.76 350.049 1543.71 348.458 1543.3 348.173C1537.05 343.887 1483.95 332.22 1443.07 326.15C1329.24 309.248 1224.74 323.875 1136.33 369.083C1134.5 370.018 1130.27 371.954 1126.92 373.385C1120.75 376.019 1087.35 394.354 1078.19 400.132C1045.58 420.707 1023.68 436.497 1003.05 454.295C995.518 460.788 986.926 468.109 983.952 470.564C947.014 501.055 882.151 572.739 849.517 619.136C847.69 621.734 841.212 630.563 835.122 638.757C829.031 646.95 821.227 657.509 817.779 662.221C740.582 767.711 686.814 804.809 616.415 801.155Z" fill="black"/>
<path d="M616.415 801.155C493.79 794.789 415.24 659.478 450.912 516.056C459.67 480.844 464.303 463.225 468.731 448.288C471.435 439.167 475.398 424.834 477.538 416.438C479.678 408.041 483.125 395.326 485.198 388.183C496.502 349.232 500.829 302.587 493.884 294.533C478.355 276.523 405.297 269.635 366.137 282.488C361.661 283.957 337.857 289.528 327.526 291.523C320.466 292.888 320.466 292.888 313.515 315.614C304.711 344.405 300.219 358.019 291.428 382.565C287.556 393.376 282.666 407.196 280.561 413.277C222.329 581.491 98.0113 637.602 -47.4576 561.329C-98.6928 534.465 -109.911 522.643 -112.763 492.513C-116.641 451.535 -72.0772 414.389 -40.8067 432.534C79.6309 502.42 146.405 481.295 177.33 363.524C177.773 361.835 181.558 350.502 185.74 338.341C189.922 326.179 196.608 306.001 200.599 293.502C204.59 281.002 208.42 269.539 209.11 268.028C210.26 265.512 209.568 264.453 200.874 255.43C136.95 189.082 145.286 45.691 215.088 10.9017C292.284 -27.5723 359.253 40.1323 348.521 145.8C346.674 163.984 345.619 162.727 360.214 159.733C384.808 154.688 391.004 154.071 417.087 154.071C544.91 154.071 619.859 222.638 609.886 330.452C606.8 363.808 601.205 387.969 577.054 472.243C547.5 575.37 547.994 619.059 579.108 653.803C616.366 695.406 656.277 683.679 707.851 615.973C716.605 604.482 717.339 603.477 729.854 585.876C736.339 576.755 744.983 564.869 749.062 559.464C753.141 554.059 759.932 544.937 764.153 539.194C768.374 533.451 772.123 528.476 772.483 528.138C772.844 527.8 775.373 524.483 778.103 520.767C801.983 488.264 859.256 423.578 879.417 406.341C882.462 403.737 888.691 397.992 893.259 393.575C906.128 381.129 937.13 353.643 946.967 345.958C969.475 328.373 1014.5 295.959 1016.41 295.959C1016.63 295.959 1024.26 291.506 1033.38 286.065C1106.99 242.126 1180.02 215.473 1263.55 202.064C1338.16 190.084 1418.49 193.941 1519.48 214.351C1569.54 224.468 1653.05 254.238 1672.05 268.743C1716.33 302.542 1691.1 382.952 1637.42 379.126C1625.55 378.28 1620.61 376.771 1589.92 364.609C1576.2 359.172 1560.27 353.366 1554.52 351.707C1548.76 350.049 1543.71 348.458 1543.3 348.173C1537.05 343.887 1483.95 332.22 1443.07 326.15C1329.24 309.248 1224.74 323.875 1136.33 369.083C1134.5 370.018 1130.27 371.954 1126.92 373.385C1120.75 376.019 1087.35 394.354 1078.19 400.132C1045.58 420.707 1023.68 436.497 1003.05 454.295C995.518 460.788 986.926 468.109 983.952 470.564C947.014 501.055 882.151 572.739 849.517 619.136C847.69 621.734 841.212 630.563 835.122 638.757C829.031 646.95 821.227 657.509 817.779 662.221C740.582 767.711 686.814 804.809 616.415 801.155Z" fill="url(#paint0_radial_248_48)" style="mix-blend-mode:plus-lighter"/>
</g>
<defs>
<filter id="filter0_d_248_48" x="-117" y="0" width="1815.77" height="809.398" filterUnits="userSpaceOnUse" color-interpolation-filters="sRGB">
<feFlood flood-opacity="0" result="BackgroundImageFix"/>
<feColorMatrix in="SourceAlpha" type="matrix" values="0 0 0 0 0 0 0 0 0 0 0 0 0 0 0 0 0 0 127 0" result="hardAlpha"/>
<feOffset dy="4"/>
<feGaussianBlur stdDeviation="2"/>
<feComposite in2="hardAlpha" operator="out"/>
<feColorMatrix type="matrix" values="0 0 0 0 0 0 0 0 0 0 0 0 0 0 0 0 0 0 0.25 0"/>
<feBlend mode="normal" in2="BackgroundImageFix" result="effect1_dropShadow_248_48"/>
<feBlend mode="normal" in="SourceGraphic" in2="effect1_dropShadow_248_48" result="shape"/>
</filter>
<radialGradient id="paint0_radial_248_48" cx="0" cy="0" r="1" gradientUnits="userSpaceOnUse" gradientTransform="translate(947.5 161.5) rotate(161.161) scale(1209.29 2727.86)">
<stop stop-color="#FFBF6C"/>
<stop offset="0.360577" stop-color="#F1A7F7"/>
<stop offset="0.634615" stop-color="#5630FF"/>
</radialGradient>
</defs>
</svg>
