<svg width="758" height="212" viewBox="0 0 758 212" fill="none" xmlns="http://www.w3.org/2000/svg">
<path d="M71.9075 23.2371C88.2295 15.1023 102.39 29.4176 100.12 51.7596C99.73 55.6038 99.5066 55.3379 102.592 54.7049C107.792 53.6382 109.103 53.5076 114.617 53.5076C141.644 53.5077 157.491 68.0058 155.382 90.8016C154.73 97.8542 153.547 102.963 148.441 120.781C142.192 142.586 142.296 151.824 148.874 159.17C156.752 167.966 165.191 165.486 176.096 151.171C177.947 148.741 178.102 148.529 180.747 144.807C182.119 142.879 183.946 140.365 184.809 139.222C185.671 138.08 187.108 136.152 188 134.937C188.892 133.724 189.684 132.672 189.761 132.599C189.795 132.567 189.922 132.405 190.105 132.167C191.43 131.746 192.841 131.51 194.306 131.491C202.195 131.388 208.674 137.594 208.776 145.352C208.79 146.464 208.671 147.546 208.436 148.586C207.575 149.719 206.774 150.809 206.049 151.84C205.663 152.389 204.293 154.256 203.005 155.988C201.718 157.72 200.067 159.953 199.338 160.949C183.016 183.253 171.648 191.098 156.763 190.325C130.836 188.979 114.227 160.369 121.77 130.045C123.622 122.6 124.601 118.875 125.537 115.717C126.109 113.788 126.946 110.758 127.399 108.982C127.851 107.207 128.581 104.518 129.019 103.008C131.409 94.7722 132.323 84.9097 130.855 83.2069C127.571 79.3991 112.125 77.9425 103.845 80.66C102.899 80.9706 97.8651 82.1482 95.681 82.5701C94.1881 82.8586 94.1884 82.859 92.7191 87.6639C90.8574 93.7513 89.907 96.6302 88.0482 101.82C87.2296 104.106 86.1964 107.027 85.7513 108.313C73.4389 143.88 47.1532 155.744 16.3958 139.617C5.56301 133.937 3.19116 131.438 2.58819 125.067C1.76821 116.403 11.1903 108.549 17.8021 112.386C43.2669 127.162 57.3855 122.695 63.9241 97.7938C64.0182 97.4357 64.8185 95.0403 65.7025 92.4696C66.5866 89.8982 68.0003 85.632 68.8441 82.9891C69.6878 80.3462 70.4979 77.9219 70.6439 77.6024C70.8867 77.0706 70.7399 76.8463 68.9026 74.9393C55.3869 60.9111 57.1488 30.593 71.9075 23.2371Z" fill="url(#paint0_radial_346_222)"/>
<path d="M252.728 100.096C252.728 93.7525 254.261 88.0966 257.327 83.1278C260.499 78.0534 264.727 74.0361 270.013 71.076C275.299 68.1158 281.114 66.6358 287.457 66.6358C293.8 66.6358 298.504 67.693 301.57 69.8073C304.742 71.816 305.958 74.2475 305.217 77.1019C304.9 78.582 304.266 79.7449 303.315 80.5906C302.469 81.3306 301.464 81.8064 300.302 82.0178C299.139 82.2292 297.87 82.1764 296.496 81.8592C289.73 80.4849 283.651 80.3792 278.259 81.5421C272.868 82.705 268.586 84.8722 265.415 88.0437C262.349 91.2153 260.816 95.2326 260.816 100.096H252.728ZM252.887 154.329C250.35 154.329 248.394 153.695 247.02 152.426C245.645 151.052 244.958 149.043 244.958 146.4V75.5161C244.958 72.9789 245.645 71.0231 247.02 69.6488C248.394 68.2744 250.35 67.5873 252.887 67.5873C255.53 67.5873 257.486 68.2744 258.754 69.6488C260.129 70.9174 260.816 72.8732 260.816 75.5161V146.4C260.816 148.937 260.129 150.893 258.754 152.268C257.486 153.642 255.53 154.329 252.887 154.329ZM343.956 154.963C335.393 154.963 327.834 153.113 321.28 149.413C314.725 145.607 309.545 140.427 305.739 133.873C302.039 127.212 300.189 119.601 300.189 111.037C300.189 102.369 302.039 94.7569 305.739 88.2023C309.545 81.5421 314.725 76.3619 321.28 72.6617C327.834 68.8559 335.393 66.9529 343.956 66.9529C352.414 66.9529 359.92 68.8559 366.474 72.6617C373.029 76.3619 378.156 81.5421 381.856 88.2023C385.662 94.7569 387.565 102.369 387.565 111.037C387.565 119.601 385.715 127.212 382.015 133.873C378.315 140.427 373.187 145.607 366.633 149.413C360.078 153.113 352.519 154.963 343.956 154.963ZM343.956 140.691C349.454 140.691 354.317 139.423 358.545 136.886C362.774 134.348 366.051 130.86 368.377 126.419C370.809 121.979 372.024 116.852 372.024 111.037C372.024 105.223 370.809 100.096 368.377 95.6555C366.051 91.1096 362.774 87.568 358.545 85.0308C354.317 82.4935 349.454 81.2249 343.956 81.2249C338.459 81.2249 333.596 82.4935 329.367 85.0308C325.138 87.568 321.808 91.1096 319.377 95.6555C316.945 100.096 315.729 105.223 315.729 111.037C315.729 116.852 316.945 121.979 319.377 126.419C321.808 130.86 325.138 134.348 329.367 136.886C333.596 139.423 338.459 140.691 343.956 140.691ZM439.865 154.963C431.301 154.963 423.743 153.113 417.188 149.413C410.633 145.607 405.453 140.427 401.647 133.873C397.947 127.212 396.097 119.601 396.097 111.037C396.097 102.369 397.947 94.7569 401.647 88.2023C405.453 81.5421 410.633 76.3619 417.188 72.6617C423.743 68.8559 431.301 66.9529 439.865 66.9529C448.322 66.9529 455.828 68.8559 462.383 72.6617C468.937 76.3619 474.064 81.5421 477.765 88.2023C481.57 94.7569 483.473 102.369 483.473 111.037C483.473 119.601 481.623 127.212 477.923 133.873C474.223 140.427 469.096 145.607 462.541 149.413C455.987 153.113 448.428 154.963 439.865 154.963ZM439.865 140.691C445.362 140.691 450.225 139.423 454.454 136.886C458.682 134.348 461.96 130.86 464.285 126.419C466.717 121.979 467.933 116.852 467.933 111.037C467.933 105.223 466.717 100.096 464.285 95.6555C461.96 91.1096 458.682 87.568 454.454 85.0308C450.225 82.4935 445.362 81.2249 439.865 81.2249C434.367 81.2249 429.504 82.4935 425.275 85.0308C421.047 87.568 417.717 91.1096 415.285 95.6555C412.854 100.096 411.638 105.223 411.638 111.037C411.638 116.852 412.854 121.979 415.285 126.419C417.717 130.86 421.047 134.348 425.275 136.886C429.504 139.423 434.367 140.691 439.865 140.691ZM610.304 154.488C607.979 154.488 606.023 153.748 604.437 152.268C602.957 150.682 602.217 148.726 602.217 146.4V101.047C602.217 94.3868 600.578 89.4709 597.301 86.2994C594.024 83.0221 589.742 81.3835 584.456 81.3835C578.959 81.3835 574.413 83.2864 570.819 87.0923C567.33 90.8981 565.585 95.7612 565.585 101.681H552.424C552.424 94.8097 553.904 88.7838 556.864 83.6036C559.824 78.3177 563.947 74.1946 569.233 71.2345C574.624 68.2744 580.756 66.7944 587.628 66.7944C593.654 66.7944 598.992 68.1158 603.644 70.7588C608.296 73.4018 611.89 77.3133 614.427 82.4935C617.07 87.568 618.392 93.7525 618.392 101.047V146.4C618.392 148.726 617.652 150.682 616.172 152.268C614.692 153.748 612.736 154.488 610.304 154.488ZM504.533 154.488C502.207 154.488 500.252 153.748 498.666 152.268C497.186 150.682 496.446 148.726 496.446 146.4V75.8333C496.446 73.4018 497.186 71.446 498.666 69.9659C500.252 68.4859 502.207 67.7458 504.533 67.7458C506.965 67.7458 508.92 68.4859 510.401 69.9659C511.881 71.446 512.621 73.4018 512.621 75.8333V146.4C512.621 148.726 511.881 150.682 510.401 152.268C508.92 153.748 506.965 154.488 504.533 154.488ZM557.498 154.488C555.172 154.488 553.216 153.748 551.631 152.268C550.151 150.682 549.411 148.726 549.411 146.4V101.047C549.411 94.3868 547.772 89.4709 544.495 86.2994C541.217 83.0221 536.936 81.3835 531.65 81.3835C526.153 81.3835 521.607 83.2864 518.012 87.0923C514.418 90.8981 512.621 95.7612 512.621 101.681H502.63C502.63 94.8097 504.005 88.7838 506.753 83.6036C509.502 78.3177 513.308 74.1946 518.171 71.2345C523.034 68.2744 528.584 66.7944 534.821 66.7944C540.847 66.7944 546.186 68.1158 550.838 70.7588C555.489 73.4018 559.084 77.3133 561.621 82.4935C564.264 87.568 565.585 93.7525 565.585 101.047V146.4C565.585 148.726 564.845 150.682 563.365 152.268C561.885 153.748 559.93 154.488 557.498 154.488ZM643.84 154.329C641.514 154.329 639.558 153.589 637.972 152.109C636.492 150.523 635.752 148.567 635.752 146.242V75.6747C635.752 73.2432 636.492 71.2874 637.972 69.8073C639.558 68.3273 641.514 67.5873 643.84 67.5873C646.271 67.5873 648.227 68.3273 649.707 69.8073C651.187 71.2874 651.927 73.2432 651.927 75.6747V146.242C651.927 148.567 651.187 150.523 649.707 152.109C648.227 153.589 646.271 154.329 643.84 154.329ZM643.84 53.4739C640.985 53.4739 638.501 52.4695 636.387 50.4609C634.378 48.3465 633.374 45.8622 633.374 43.0078C633.374 40.1534 634.378 37.7218 636.387 35.7132C638.501 33.5988 640.985 32.5417 643.84 32.5417C646.694 32.5417 649.126 33.5988 651.134 35.7132C653.249 37.7218 654.306 40.1534 654.306 43.0078C654.306 45.8622 653.249 48.3465 651.134 50.4609C649.126 52.4695 646.694 53.4739 643.84 53.4739ZM711.672 154.963C702.898 154.963 695.075 153.113 688.203 149.413C681.437 145.607 676.098 140.427 672.187 133.873C668.381 127.212 666.478 119.601 666.478 111.037C666.478 102.369 668.275 94.7569 671.87 88.2023C675.57 81.5421 680.644 76.3619 687.093 72.6617C693.542 68.8559 700.942 66.9529 709.294 66.9529C717.54 66.9529 724.623 68.803 730.543 72.5032C736.463 76.0976 740.956 81.1192 744.022 87.568C747.194 93.9111 748.78 101.259 748.78 109.61C748.78 111.619 748.092 113.31 746.718 114.685C745.344 115.953 743.599 116.588 741.485 116.588H677.578V103.901H741.009L734.508 108.342C734.402 103.056 733.345 98.3513 731.336 94.2283C729.327 89.9995 726.473 86.6694 722.773 84.2379C719.073 81.8064 714.58 80.5906 709.294 80.5906C703.268 80.5906 698.088 81.9121 693.753 84.555C689.524 87.198 686.3 90.8453 684.08 95.4969C681.86 100.043 680.75 105.223 680.75 111.037C680.75 116.852 682.071 122.032 684.714 126.578C687.357 131.124 691.005 134.718 695.656 137.361C700.308 140.004 705.647 141.326 711.672 141.326C714.95 141.326 718.28 140.744 721.663 139.581C725.152 138.313 727.953 136.886 730.067 135.3C731.653 134.137 733.345 133.555 735.142 133.555C737.045 133.45 738.683 133.978 740.058 135.141C741.855 136.727 742.806 138.471 742.912 140.374C743.018 142.277 742.172 143.916 740.375 145.29C736.781 148.145 732.288 150.47 726.896 152.268C721.61 154.065 716.535 154.963 711.672 154.963Z" fill="white"/>
<defs>

<radialGradient id="paint0_radial_346_222" cx="0" cy="0" r="1" gradientTransform="matrix(-199.769 116.712 -121.71 -822.301 192.724 20.9322)" gradientUnits="userSpaceOnUse">
<stop stop-color="#FFBF6C"/>
<stop offset="0.360577" stop-color="#F1A7F7"/>
<stop offset="0.634615" stop-color="#5630FF"/>
</radialGradient>
</defs>
</svg>
